<svg width="80" height="80" viewBox="0 0 80 80" fill="none" xmlns="http://www.w3.org/2000/svg">
<path d="M63.3333 13.3334H60V6.66675H53.3333V13.3334H26.6667V6.66675H20V13.3334H16.6667C13 13.3334 10 16.3334 10 20.0001V66.6668C10 70.3334 13 73.3334 16.6667 73.3334H63.3333C67 73.3334 70 70.3334 70 66.6668V20.0001C70 16.3334 67 13.3334 63.3333 13.3334ZM63.3333 66.6668H16.6667V33.3334H63.3333V66.6668ZM16.6667 26.6667V20.0001H63.3333V26.6667H16.6667ZM23.3333 40.0001H56.6667V46.6667H23.3333V40.0001ZM23.3333 53.3334H46.6667V60.0001H23.3333V53.3334Z" fill="#F7F4D9"/>
</svg>
