<svg width="80" height="80" viewBox="0 0 80 80" fill="none" xmlns="http://www.w3.org/2000/svg">
<path d="M63.3333 13.3333H60V6.66666H53.3333V13.3333H26.6667V6.66666H20V13.3333H16.6667C13 13.3333 10 16.3333 10 20V66.6667C10 70.3333 13 73.3333 16.6667 73.3333H63.3333C67 73.3333 70 70.3333 70 66.6667V20C70 16.3333 67 13.3333 63.3333 13.3333ZM63.3333 66.6667H16.6667V33.3333H63.3333V66.6667ZM16.6667 26.6667V20H63.3333V26.6667H16.6667ZM23.3333 40H56.6667V46.6667H23.3333V40ZM23.3333 53.3333H46.6667V60H23.3333V53.3333Z" fill="#3C6255"/>
</svg>
