<svg width="80" height="80" viewBox="0 0 80 80" fill="none" xmlns="http://www.w3.org/2000/svg">
<path d="M14.1667 35C11.4 35 9.16669 37.2333 9.16669 40C9.16669 42.7667 11.4 45 14.1667 45C16.9334 45 19.1667 42.7667 19.1667 40C19.1667 37.2333 16.9334 35 14.1667 35ZM14.1667 15C11.4 15 9.16669 17.2333 9.16669 20C9.16669 22.7667 11.4 25 14.1667 25C16.9334 25 19.1667 22.7667 19.1667 20C19.1667 17.2333 16.9334 15 14.1667 15ZM14.1667 55C11.4 55 9.16669 57.2667 9.16669 60C9.16669 62.7333 11.4334 65 14.1667 65C16.9 65 19.1667 62.7333 19.1667 60C19.1667 57.2667 16.9334 55 14.1667 55ZM24.1667 63.3333H70.8334V56.6667H24.1667V63.3333ZM24.1667 43.3333H70.8334V36.6667H24.1667V43.3333ZM24.1667 16.6667V23.3333H70.8334V16.6667H24.1667Z" fill="#3C6255"/>
</svg>
