<svg width="80" height="80" viewBox="0 0 80 80" fill="none" xmlns="http://www.w3.org/2000/svg">
<path d="M40 26.6667C43.6667 26.6667 46.6667 23.6667 46.6667 20C46.6667 16.3334 43.6667 13.3334 40 13.3334C36.3333 13.3334 33.3333 16.3334 33.3333 20C33.3333 23.6667 36.3333 26.6667 40 26.6667ZM40 33.3334C36.3333 33.3334 33.3333 36.3334 33.3333 40C33.3333 43.6667 36.3333 46.6667 40 46.6667C43.6667 46.6667 46.6667 43.6667 46.6667 40C46.6667 36.3334 43.6667 33.3334 40 33.3334ZM40 53.3334C36.3333 53.3334 33.3333 56.3334 33.3333 60C33.3333 63.6667 36.3333 66.6667 40 66.6667C43.6667 66.6667 46.6667 63.6667 46.6667 60C46.6667 56.3334 43.6667 53.3334 40 53.3334Z" fill="#F7F4D9"/>
</svg>
