<svg width="140" height="140" viewBox="0 0 140 140" fill="none" xmlns="http://www.w3.org/2000/svg">
<path d="M98.2625 83.1542H93.6542L92.0208 81.5792C97.7375 74.9292 101.179 66.2959 101.179 56.9042C101.179 35.9625 84.2042 18.9875 63.2625 18.9875C43.3125 18.9875 26.9792 34.3875 25.5208 53.9875H37.3042C38.7625 40.8625 49.7292 30.6542 63.2625 30.6542C77.7875 30.6542 89.5125 42.3792 89.5125 56.9042C89.5125 71.4292 77.7875 83.1542 63.2625 83.1542C62.2708 83.1542 61.3375 82.9792 60.3458 82.8625V94.6459C61.3375 94.7625 62.2708 94.8209 63.2625 94.8209C72.6542 94.8209 81.2875 91.3792 87.9375 85.6625L89.5125 87.2959V91.9042L118.679 121.013L127.371 112.321L98.2625 83.1542Z" fill="#3C6255"/>
<path d="M45.5875 64.6042L31.1792 79.0125L16.7708 64.6042L12.6292 68.7459L27.0375 83.1542L12.6292 97.5625L16.7708 101.704L31.1792 87.2959L45.5875 101.704L49.7292 97.5625L35.3208 83.1542L49.7292 68.7459L45.5875 64.6042Z" fill="#3C6255"/>
</svg>
